<?xml version="1.0" encoding="UTF-8"?>
<svg version="1.1" xmlns="http://www.w3.org/2000/svg" width="1024" height="1024">
<path d="M0 0 C1.22638184 0.43650879 2.45276367 0.87301758 3.71630859 1.32275391 C18.69836419 6.73965022 33.05845869 13.23294065 47.375 20.1875 C48.15382538 20.56545715 48.93265076 20.94341431 49.7350769 21.33282471 C59.71528012 26.19673437 69.44104145 31.3503339 79 37 C79.98500488 37.58112549 80.97000977 38.16225098 81.98486328 38.76098633 C98.64621046 48.67247621 114.60897763 59.20981843 130 71 C131.04671875 71.79019531 132.0934375 72.58039063 133.171875 73.39453125 C141.01253579 79.33442579 148.55140948 85.57708438 156 92 C156.71671875 92.61488281 157.4334375 93.22976562 158.171875 93.86328125 C168.21422602 102.55696943 177.83127943 111.66378564 187.2019043 121.0715332 C188.82552229 122.70056572 190.45449603 124.32410728 192.08398438 125.94726562 C197.59953818 131.45894681 202.96324481 137.04236097 208 143 C208.97269585 144.11828687 209.94662263 145.23550446 210.921875 146.3515625 C217.8723365 154.37477573 224.57073499 162.55317441 231 171 C231.53882813 171.70753418 232.07765625 172.41506836 232.6328125 173.14404297 C241.6667038 185.0680576 250.08858757 197.3038702 258 210 C258.77029541 211.23314941 258.77029541 211.23314941 259.55615234 212.49121094 C304.87361131 285.64470128 330.8290157 370.26832486 320.875 599 C303.04827031 672.56657448 268.49127549 740.24597143 221 799 C219.99066406 800.27230469 219.99066406 800.27230469 218.9609375 801.5703125 C214.14193185 807.58092682 209.06364339 813.27689415 203.78051758 818.87792969 C201.03706037 821.78823893 198.35835055 824.72985678 195.75390625 827.765625 C191.26039953 832.93129578 186.41205342 837.73362697 181.5625 842.5625 C180.65951172 843.46935547 179.75652344 844.37621094 178.82617188 845.31054688 C173.71166012 850.41765166 168.49352964 855.30574137 163 860 C161.84319424 861.02133708 160.6882078 862.04473894 159.53515625 863.0703125 C151.00691647 870.59580402 142.18770557 877.61697145 133.08349609 884.43115234 C131.10127802 885.92373886 129.13636803 887.43619276 127.17578125 888.95703125 C84.74778696 921.67780722 35.75458407 946.18385709 -15 963 C-16.05783691 963.35255859 -17.11567383 963.70511719 -18.20556641 964.06835938 C-96.28911542 989.81045409 -181.04838715 995.7837641 -410.43310547 930.80078125 C-432.78976127 919.51380704 -453.99216187 906.04494816 -474 891 C-474.85223145 890.36416992 -475.70446289 889.72833984 -476.58251953 889.07324219 C-487.72627418 880.75015606 -498.60114671 872.23887622 -509 863 C-509.81726563 862.28199219 -510.63453125 861.56398438 -511.4765625 860.82421875 C-519.82514339 853.41101398 -527.92096052 845.7049109 -536 838 C-536.53544434 837.49662109 -537.07088867 836.99324219 -537.62255859 836.47460938 C-538.78758422 835.35585717 -539.90076548 834.18345877 -541 833 C-541 832.34 -541 831.68 -541 831 C-541.66 831 -542.32 831 -543 831 C-544.26953125 829.7421875 -544.26953125 829.7421875 -545.8125 827.875 C-548.68245643 824.48976955 -551.64134186 821.21995846 -554.68115234 817.98852539 C-560.74438558 811.54164278 -566.52963628 804.96407967 -572 798 C-572.76441406 797.030625 -573.52882813 796.06125 -574.31640625 795.0625 C-609.03419021 750.48107597 -637.22042148 701.36810073 -656 648 C-656.5561499 646.44394043 -656.5561499 646.44394043 -657.12353516 644.85644531 C-687.64285127 559.00705247 -693.51323739 463.68015351 -672 364 C-671.72349609 362.79698242 -671.44699219 361.59396484 -671.16210938 360.35449219 C-664.08592306 330.04509367 -654.2734326 300.17321426 -641 272 C-640.54302734 271.01354492 -640.08605469 270.02708984 -639.61523438 269.01074219 C-612.50888509 210.56153029 -575.4902502 159.55043248 -530.125 114 C-529.3405249 113.21085205 -528.5560498 112.4217041 -527.74780273 111.60864258 C-522.99245642 106.86640612 -518.09453732 102.37314031 -513 98 C-511.84340905 96.97841967 -510.68841593 95.95502701 -509.53515625 94.9296875 C-500.9774687 87.37900264 -492.11343939 80.35673587 -482.98974609 73.50488281 C-480.57259969 71.67674902 -478.18547526 69.81222283 -475.79882812 67.94458008 C-469.40552299 62.95683339 -462.82133524 58.37750796 -456 54 C-455.32759277 53.56461914 -454.65518555 53.12923828 -453.96240234 52.68066406 C-441.56103079 44.66255962 -428.90341603 37.17950005 -416 30 C-415.30293945 29.60748047 -414.60587891 29.21496094 -413.88769531 28.81054688 C-372.71274742 5.7069393 -326.9224835 -9.61892346 -281 -20 C-279.75347656 -20.28359375 -278.50695312 -20.5671875 -277.22265625 -20.859375 C-261.32983434 -24.39481912 -245.49866548 -26.7048293 -229.3125 -28.3125 C-228.08358032 -28.43473938 -228.08358032 -28.43473938 -226.82983398 -28.55944824 C-149.36716125 -36.11079183 -73.1914419 -26.12904131 0 0 Z " fill="#002868" transform="translate(687,33)"/>
<path d="M0 0 C1.22638184 0.43650879 2.45276367 0.87301758 3.71630859 1.32275391 C18.69836419 6.73965022 33.05845869 13.23294065 47.375 20.1875 C48.15382538 20.56545715 48.93265076 20.94341431 49.7350769 21.33282471 C59.71528012 26.19673437 69.44104145 31.3503339 79 37 C79.98500488 37.58112549 80.97000977 38.16225098 81.98486328 38.76098633 C98.64621046 48.67247621 114.60897763 59.20981843 130 71 C131.04671875 71.79019531 132.0934375 72.58039063 133.171875 73.39453125 C141.01253579 79.33442579 148.55140948 85.57708438 156 92 C156.71671875 92.61488281 157.4334375 93.22976562 158.171875 93.86328125 C168.21422602 102.55696943 177.83127943 111.66378564 187.2019043 121.0715332 C188.82552229 122.70056572 190.45449603 124.32410728 192.08398438 125.94726562 C197.59953818 131.45894681 202.96324481 137.04236097 208 143 C208.97269585 144.11828687 209.94662263 145.23550446 210.921875 146.3515625 C217.8723365 154.37477573 224.57073499 162.55317441 231 171 C231.53882813 171.70753418 232.07765625 172.41506836 232.6328125 173.14404297 C241.6667038 185.0680576 250.08858757 197.3038702 258 210 C258.77029541 211.23314941 258.77029541 211.23314941 259.55615234 212.49121094 C304.87361131 285.64470128 330.8290157 370.26832486 320.875 599 C303.04827031 672.56657448 268.49127549 740.24597143 221 799 C219.99066406 800.27230469 219.99066406 800.27230469 218.9609375 801.5703125 C214.14193185 807.58092682 209.06364339 813.27689415 203.78051758 818.87792969 C201.03706037 821.78823893 198.35835055 824.72985678 195.75390625 827.765625 C191.26039953 832.93129578 186.41205342 837.73362697 181.5625 842.5625 C180.65951172 843.46935547 179.75652344 844.37621094 178.82617188 845.31054688 C173.71166012 850.41765166 168.49352964 855.30574137 163 860 C161.84319424 861.02133708 160.6882078 862.04473894 159.53515625 863.0703125 C151.00691647 870.59580402 142.18770557 877.61697145 133.08349609 884.43115234 C131.10127802 885.92373886 129.13636803 887.43619276 127.17578125 888.95703125 C84.74778696 921.67780722 35.75458407 946.18385709 -15 963 C-16.05783691 963.35255859 -17.11567383 963.70511719 -18.20556641 964.06835938 C-96.28911542 989.81045409 -181.04838715 995.7837641 -410.43310547 930.80078125 C-432.78976127 919.51380704 -453.99216187 906.04494816 -474 891 C-474.85223145 890.36416992 -475.70446289 889.72833984 -476.58251953 889.07324219 C-487.72627418 880.75015606 -498.60114671 872.23887622 -509 863 C-509.81726563 862.28199219 -510.63453125 861.56398438 -511.4765625 860.82421875 C-519.82514339 853.41101398 -527.92096052 845.7049109 -536 838 C-536.53544434 837.49662109 -537.07088867 836.99324219 -537.62255859 836.47460938 C-538.78758422 835.35585717 -539.90076548 834.18345877 -541 833 C-541 832.34 -541 831.68 -541 831 C-541.66 831 -542.32 831 -543 831 C-544.26953125 829.7421875 -544.26953125 829.7421875 -545.8125 827.875 C-548.68245643 824.48976955 -551.64134186 821.21995846 -554.68115234 817.98852539 C-560.74438558 811.54164278 -566.52963628 804.96407967 -572 798 C-572.76441406 797.030625 -573.52882813 796.06125 -574.31640625 795.0625 C-609.03419021 750.48107597 -637.22042148 701.36810073 -656 648 C-656.5561499 646.44394043 -656.5561499 646.44394043 -657.12353516 644.85644531 C-687.64285127 559.00705247 -693.51323739 463.68015351 -672 364 C-671.72349609 362.79698242 -671.44699219 361.59396484 -671.16210938 360.35449219 C-664.08592306 330.04509367 -654.2734326 300.17321426 -641 272 C-640.54302734 271.01354492 -640.08605469 270.02708984 -639.61523438 269.01074219 C-612.50888509 210.56153029 -575.4902502 159.55043248 -530.125 114 C-529.3405249 113.21085205 -528.5560498 112.4217041 -527.74780273 111.60864258 C-522.99245642 106.86640612 -518.09453732 102.37314031 -513 98 C-511.84340905 96.97841967 -510.68841593 95.95502701 -509.53515625 94.9296875 C-500.9774687 87.37900264 -492.11343939 80.35673587 -482.98974609 73.50488281 C-480.57259969 71.67674902 -478.18547526 69.81222283 -475.79882812 67.94458008 C-469.40552299 62.95683339 -462.82133524 58.37750796 -456 54 C-455.32759277 53.56461914 -454.65518555 53.12923828 -453.96240234 52.68066406 C-441.56103079 44.66255962 -428.90341603 37.17950005 -416 30 C-415.30293945 29.60748047 -414.60587891 29.21496094 -413.88769531 28.81054688 C-372.71274742 5.7069393 -326.9224835 -9.61892346 -281 -20 C-279.75347656 -20.28359375 -278.50695312 -20.5671875 -277.22265625 -20.859375 C-261.32983434 -24.39481912 -245.49866548 -26.7048293 -229.3125 -28.3125 C-228.08358032 -28.43473938 -228.08358032 -28.43473938 -226.82983398 -28.55944824 C-149.36716125 -36.11079183 -73.1914419 -26.12904131 0 0 Z M-304 89 C-304.92570801 89.29487305 -305.85141602 89.58974609 -306.80517578 89.89355469 C-358.50370667 106.51413097 -407.3556664 135.63804952 -447.19921875 172.4453125 C-449.30898425 174.36970112 -451.44109047 176.23405465 -453.609375 178.08984375 C-458.63837227 182.47740844 -463.33902546 187.18884981 -468.0456543 191.9152832 C-469.5599258 193.43491668 -471.0794743 194.94912517 -472.59960938 196.46289062 C-482.52241301 206.37759253 -491.36957949 216.9587516 -500 228 C-500.89114502 229.13840332 -500.89114502 229.13840332 -501.80029297 230.29980469 C-511.44548868 242.69386846 -520.0118962 255.48458267 -528 269 C-528.50096191 269.8357959 -529.00192383 270.6715918 -529.51806641 271.53271484 C-542.73836844 293.63534013 -553.53120085 316.68608978 -562 341 C-562.34369629 341.96437988 -562.68739258 342.92875977 -563.04150391 343.92236328 C-597.66377262 441.25789208 -592.91442809 551.34122523 -545.8671875 656.0546875 C-537.04087493 674.55162256 -526.54243836 692.07751357 -515 709 C-514.351521 709.95108643 -514.351521 709.95108643 -513.68994141 710.92138672 C-504.23431265 724.67604985 -494.08356901 738.10355473 -482.59765625 750.2265625 C-480.61403526 752.34441348 -478.7131401 754.48410026 -476.82421875 756.68359375 C-472.35186033 761.81836695 -467.56153033 766.62249815 -462.75 771.4375 C-461.87214844 772.32759766 -460.99429688 773.21769531 -460.08984375 774.13476562 C-454.78644226 779.44981441 -449.30854895 784.34966492 -443.44677734 789.04125977 C-441.49794142 790.60137856 -439.59259878 792.18439742 -437.71484375 793.828125 C-429.55554963 800.94312128 -420.93894732 807.28880189 -412.09375 813.5234375 C-410.25470153 814.8203784 -408.4231512 816.12701548 -406.59375 817.4375 C-356.54050532 852.82868311 -297.71027883 875.48645002 -237.25 884.75 C-235.96174316 884.94867676 -234.67348633 885.14735352 -233.34619141 885.35205078 C-214.07992003 888.17203557 -194.9045038 889.41151186 -175.4375 889.375 C-173.85616776 889.37468277 -173.85616776 889.37468277 -172.2428894 889.37435913 C-143.40251704 889.31716575 -115.15530663 886.38088022 -87 880 C-85.89994629 879.75411133 -84.79989258 879.50822266 -83.66650391 879.25488281 C-57.62693241 873.34303593 -32.24271504 865.24113456 -8 854 C-7.01725098 853.54898926 -6.03450195 853.09797852 -5.02197266 852.63330078 C24.41609637 839.06099511 52.84639696 822.58022067 78 802 C79.34384766 800.92298828 79.34384766 800.92298828 80.71484375 799.82421875 C83.49909311 797.57524832 86.25413016 795.29566625 89 793 C89.82999512 792.30753174 89.82999512 792.30753174 90.67675781 791.60107422 C98.49556046 785.05806185 105.90192925 778.32663117 113 771 C115.72449187 768.25743522 118.46998746 765.53814953 121.234375 762.8359375 C128.31324191 755.88830913 134.87663131 748.81841884 141 741 C141.91708048 739.8706137 142.83648611 738.74311276 143.7578125 737.6171875 C189.76224856 681.21115302 218.84049515 614.97453213 230.75 543.25 C230.94883789 542.06873535 231.14767578 540.8874707 231.35253906 539.67041016 C234.58287285 519.28827839 235.37858435 498.92194542 235.3125 478.3125 C235.31067719 477.12689484 235.30885437 475.94128967 235.30697632 474.71975708 C235.2619156 457.29065158 234.77040658 440.23868079 232 423 C231.82307617 421.83436523 231.64615234 420.66873047 231.46386719 419.46777344 C223.47744886 367.28708167 206.79977065 317.56582403 180 272 C179.48904785 271.12778809 178.9780957 270.25557617 178.45166016 269.35693359 C165.4748584 247.38852066 150.07795748 226.95334066 133 208 C132.28328125 207.19175781 131.5665625 206.38351563 130.828125 205.55078125 C126.89257449 201.13319184 122.89424901 196.84236516 118.66796875 192.703125 C116.91370086 190.9118819 115.30492511 189.04027262 113.6875 187.125 C109.51141932 182.30218116 104.81352539 178.17391996 100 174 C99.48018555 173.54608887 98.96037109 173.09217773 98.42480469 172.62451172 C84.22266323 160.23228243 69.66576134 148.86259142 54.00439453 138.36132812 C51.66923795 136.77535576 49.39715043 135.11214397 47.125 133.4375 C-39.08029283 72.92945217 -153.96765257 56.58382432 -304 89 Z " fill="#2E8B57" transform="translate(687,33)"/>
<path d="M0 0 C19.97716834 -0.06976008 39.95430172 -0.12314302 59.93156719 -0.15543652 C69.20954754 -0.17083649 78.48745033 -0.1917928 87.76538086 -0.22631836 C95.86192136 -0.25643303 103.95840564 -0.27562476 112.0550006 -0.28226548 C116.33310628 -0.2861408 120.61105123 -0.29510066 124.88910484 -0.31719017 C167.34778123 -0.52789219 167.34778123 -0.52789219 187.8125 5.75 C189.10329468 6.13406006 189.10329468 6.13406006 190.42016602 6.52587891 C198.58760514 9.03719046 206.36071754 12.18138088 214 16 C215.16660156 16.58265625 216.33320313 17.1653125 217.53515625 17.765625 C239.90330338 29.76927555 257.51810081 48.47055919 269 71 C269.34305176 71.6712793 269.68610352 72.34255859 270.03955078 73.03417969 C275.98555502 84.91521261 279.54216631 96.96466091 282 110 C282.18546387 110.92232422 282.37092773 111.84464844 282.56201172 112.79492188 C284.42165749 123.1133846 284.39932821 133.42501879 284.375 143.875 C284.3737915 144.83153473 284.37258301 145.78806946 284.37133789 146.77359009 C284.32193986 161.16935036 283.87165329 175.04645759 280 189 C279.73155273 189.9787207 279.46310547 190.95744141 279.18652344 191.96582031 C270.91714442 221.07806383 255.0492814 246.38459413 231 265 C229.73542969 266.01126953 229.73542969 266.01126953 228.4453125 267.04296875 C219.69523196 274 219.69523196 274 215 274 C215 274.66 215 275.32 215 276 C187.4306798 289.55378402 159.12982452 295.19859726 128.51074219 295.11352539 C127.10012311 295.11324258 125.68950388 295.11340309 124.27888489 295.1139679 C120.48838085 295.11425219 116.69790913 295.10841546 112.90741253 295.10139394 C108.9316239 295.09509865 104.95583435 295.09455175 100.9800415 295.09336853 C93.46870741 295.09027329 85.95738805 295.0820845 78.44606042 295.07201904 C69.88730131 295.06080147 61.32854146 295.05533329 52.76977682 295.05032361 C35.17984248 295.03990019 17.58992337 295.02213219 0 295 C0 288.73 0 282.46 0 276 C1.4953125 275.75765625 2.990625 275.5153125 4.53125 275.265625 C6.52094698 274.92775193 8.51052415 274.58917273 10.5 274.25 C11.48226562 274.09273437 12.46453125 273.93546875 13.4765625 273.7734375 C20.29839738 272.59098612 26.5839814 271.07441674 31.875 266.3125 C34.98344992 259.9229085 35.29377588 252.86117724 35.26069641 245.87419128 C35.26452196 245.00108805 35.26834751 244.12798481 35.27228898 243.22842389 C35.28253951 240.32694318 35.27864202 237.42566331 35.2746582 234.52416992 C35.27900911 232.4339632 35.28419352 230.34375807 35.29014587 228.2535553 C35.30350713 222.59228799 35.30411768 216.93108757 35.30158257 211.26980758 C35.3005108 206.53593134 35.30540157 201.80206852 35.310188 197.06819516 C35.3212735 185.8953067 35.32172613 174.72245185 35.31567383 163.54956055 C35.30963569 152.04169752 35.32194324 140.53395681 35.3432439 129.02611464 C35.36088556 119.12942897 35.36685716 109.23278214 35.36360615 99.33608133 C35.36179707 93.43255397 35.36439196 87.52911386 35.37832069 81.62560081 C35.39093595 76.07118984 35.38891994 70.51696886 35.37590981 64.96256065 C35.37355244 62.93093297 35.3762484 60.89929176 35.38453293 58.8676796 C36.26515226 42.15505603 36.26515226 42.15505603 30.51292896 27.22920513 C22.69330618 20.55298495 9.63382594 20.2399974 0 19 C0 12.73 0 6.46 0 0 Z " fill="#F8FAFC" transform="translate(218,366)"/>
<path d="M0 0 C11.45587735 -0.53580568 22.90872631 -0.94293909 34.37463379 -1.19167995 C39.70123189 -1.31116053 45.01919608 -1.47269566 50.34082031 -1.73510742 C85.77583048 -3.4373239 85.77583048 -3.4373239 93.44085693 2.16757202 C98.74028836 7.35630745 101.86365064 13.24550167 104.66670227 20.04542542 C106.84511582 24.87276829 109.97789801 28.95545555 113.125 33.1875 C114.27667302 34.82102906 115.42437992 36.45736853 116.56640625 38.09765625 C117.41356201 39.30639404 117.41356201 39.30639404 118.27783203 40.53955078 C120.03066954 43.04381735 121.77949055 45.5508463 123.52734375 48.05859375 C129.18447946 56.16931404 134.87699693 64.24825521 140.6875 72.25 C145.13890763 78.38151091 149.49468502 84.56711183 153.76855469 90.82348633 C162.15298834 103.09379411 170.73715087 115.22703706 179.32226562 127.35742188 C183.56318282 133.35935067 187.75006507 139.39818797 191.9375 145.4375 C197.34023258 153.22671176 202.81948411 160.95156102 208.39794922 168.61572266 C212.50297436 174.2699598 216.4842096 180.00178961 220.3996582 185.78881836 C222.26907224 188.54098108 224.1439657 191.17701522 226.24609375 193.76171875 C228 196 228 196 229 199 C229.11718179 179.45806167 229.20515793 159.91619537 229.25906086 140.37397766 C229.28476235 131.2986776 229.31975733 122.22359677 229.37719727 113.1484375 C229.42728052 105.23176508 229.45934944 97.31525156 229.47044247 89.3984251 C229.47691941 85.21257015 229.49197029 81.02716947 229.52865028 76.84146118 C229.56300558 72.88838853 229.57297493 68.93595009 229.56553841 64.98274231 C229.56689556 63.54457634 229.5765903 62.10638547 229.59602737 60.66835022 C229.72937888 50.27828799 228.86253457 37.3371818 222.24440479 28.71199036 C215.94623509 22.78296074 207.88166399 21.4264999 199.625 20.375 C197.82504691 20.13636024 196.02553511 19.89435946 194.2265625 19.6484375 C193.43846191 19.54708496 192.65036133 19.44573242 191.83837891 19.34130859 C190 19 190 19 189 18 C189 12.06 189 6.12 189 0 C224.64 0 260.28 0 297 0 C297 5.94 297 11.88 297 18 C295.34871094 18.30292969 293.69742187 18.60585938 291.99609375 18.91796875 C289.80971876 19.34023001 287.62353036 19.76345821 285.4375 20.1875 C284.35146484 20.38408203 283.26542969 20.58066406 282.14648438 20.78320312 C275.13785643 22.16788646 269.281638 23.65726865 264.77001953 29.62768555 C257.56771506 42.08471598 259.69315988 59.53787013 259.68115234 73.33325195 C259.67184264 75.78834357 259.66167244 78.24343205 259.65071106 80.69851685 C259.62913179 85.96176497 259.6134732 91.22499437 259.60334396 96.48827553 C259.58868878 104.09786618 259.56313335 111.70739037 259.53501268 119.31694176 C259.48966815 131.66627357 259.45300267 144.01561501 259.421875 156.36499023 C259.39163869 168.35328866 259.35726528 180.3415636 259.31738281 192.32983398 C259.31492126 193.07018048 259.31245972 193.81052697 259.30992357 194.57330821 C259.29754799 198.28782393 259.28509164 202.00233937 259.27259517 205.71685469 C259.16921236 236.47787119 259.0800944 267.23891363 259 298 C254.59292552 298.22107587 250.18886385 298.38117752 245.77787781 298.48751831 C244.28119143 298.53188025 242.7848838 298.59224877 241.28953552 298.66952515 C228.89225316 299.29366829 228.89225316 299.29366829 224.20564365 296.08959484 C220.71009951 292.34299958 217.93216432 288.25566542 215.80859375 283.58203125 C213.17643623 278.19078711 209.98784297 273.58421924 206.375 268.8125 C205.29576023 267.33213117 204.22020085 265.84907183 203.1484375 264.36328125 C202.36291504 263.27781006 202.36291504 263.27781006 201.56152344 262.17041016 C198.51272765 257.93279375 195.51698447 253.65778823 192.51464844 249.38720703 C188.9256798 244.29049552 185.28559614 239.23294817 181.625 234.1875 C176.41302352 227.00072188 171.30691995 219.74496919 166.23095703 212.46166992 C162.37296962 206.93552254 158.46000109 201.45343215 154.5 196 C149.93378111 189.71172775 145.44342702 183.3756185 141 177 C134.91660384 168.27304262 128.71190917 159.63996002 122.46679688 151.02832031 C120.29752422 148.0286004 118.14758579 145.01526634 116 142 C112.23250796 136.7115233 108.43282701 131.44699455 104.625 126.1875 C98.85995486 118.21884388 93.17225656 110.19800313 87.51464844 102.15283203 C84.86783218 98.39080338 82.21497025 94.63304322 79.5625 90.875 C79.07837646 90.18849365 78.59425293 89.5019873 78.09545898 88.79467773 C77.63212158 88.13798096 77.16878418 87.48128418 76.69140625 86.8046875 C76.09114624 85.95366455 76.09114624 85.95366455 75.47875977 85.08544922 C74.12570622 83.17727959 72.76746303 81.27296306 71.40757751 79.36965942 C70.95685851 78.73878984 70.50613951 78.10792027 70.04176235 77.45793343 C69.69798078 76.9768154 69.3541992 76.49569736 69 76 C68.92978882 98.07108844 68.87695261 120.14215836 68.84456348 142.21333599 C68.82912213 152.46233043 68.80808503 162.7112553 68.77368164 172.96020508 C68.74369544 181.89754196 68.72440516 190.83482844 68.71773452 199.77221423 C68.71383783 204.50054182 68.7047375 209.22872526 68.68280983 213.95700645 C68.66229873 218.41637524 68.65619546 222.87554183 68.66067696 227.33495331 C68.65985825 228.96302454 68.65398031 230.59110324 68.64238358 232.21913338 C68.39942748 251.45785207 68.39942748 251.45785207 77 268 C82.86098065 272.09306092 89.58158392 273.14232708 96.5 274.25 C98.01980469 274.50910156 98.01980469 274.50910156 99.5703125 274.7734375 C102.04497096 275.19366252 104.52224549 275.59843289 107 276 C107 282.27 107 288.54 107 295 C71.69 295 36.38 295 0 295 C0 277 0 277 1 276 C2.99149667 275.66843587 4.98416373 275.34262153 6.98168945 275.04956055 C20.49047357 273.24425908 20.49047357 273.24425908 31.875 266.3125 C36.35850513 259.32350671 38.60280214 253.34712056 38.50793457 245.03277588 C38.51417453 244.17671242 38.5204145 243.32064895 38.52684355 242.43864417 C38.54268925 239.59455093 38.53020239 236.75132485 38.51757812 233.90722656 C38.52300315 231.85804752 38.53012794 229.80887238 38.53881836 227.75970459 C38.55701386 222.20985714 38.54999843 216.66030801 38.53730202 211.11045551 C38.52714937 205.28959178 38.53657449 199.46875296 38.54284668 193.64788818 C38.55011879 183.86970454 38.54054918 174.09164183 38.52148438 164.31347656 C38.49974092 153.03166113 38.50675052 141.75013516 38.52879 130.46832681 C38.54698548 120.7635388 38.54948133 111.05883757 38.53903532 101.354038 C38.53282005 95.56615954 38.53190999 89.77841676 38.54518127 83.99054718 C38.55679869 78.54358237 38.54860684 73.09698769 38.52560425 67.65006256 C38.52034746 65.65917574 38.5217785 63.66825739 38.53065491 61.67738342 C38.75541584 43.93344473 38.75541584 43.93344473 31.8125 27.9375 C23.40650779 22.14670537 14.8784453 20.98191907 4.9375 19.61328125 C1 19 1 19 0 18 C-0.08631874 16.65732587 -0.10706473 15.31025678 -0.09765625 13.96484375 C-0.09443359 13.15595703 -0.09121094 12.34707031 -0.08789062 11.51367188 C-0.07951172 10.66353516 -0.07113281 9.81339844 -0.0625 8.9375 C-0.05798828 8.08349609 -0.05347656 7.22949219 -0.04882812 6.34960938 C-0.03700373 4.23304337 -0.01906769 2.11651315 0 0 Z " fill="#F8FAFB" transform="translate(520,366)"/>
<path d="M0 0 C0.83249268 0.01200439 1.66498535 0.02400879 2.52270508 0.03637695 C27.34944027 0.60155014 48.65904992 8.79225547 65.9453125 26.71875 C84.71574075 48.80160676 90.81875423 80.7500453 90.7578125 108.98046875 C90.75876923 109.9777449 90.75972595 110.97502106 90.76071167 112.0025177 C90.7613886 114.10267195 90.75956849 116.20282835 90.75537109 118.30297852 C90.75004449 121.47351939 90.7553181 124.64391677 90.76171875 127.81445312 C90.7676079 142.99085928 90.64412134 157.57048853 86.625 172.3125 C86.42777344 173.05806152 86.23054688 173.80362305 86.02734375 174.57177734 C81.56436032 191.26453797 75.46940258 205.71687478 64.625 219.3125 C64.16996094 219.94285156 63.71492188 220.57320312 63.24609375 221.22265625 C54.60328878 232.54860068 39.88993974 239.10813149 26.5234375 242.734375 C24.63339819 243.14728723 24.63339819 243.14728723 23.625 244.3125 C11.08405704 246.17980952 -2.09749955 246.10034509 -14.625 244.1875 C-15.32778076 244.09500977 -16.03056152 244.00251953 -16.75463867 243.90722656 C-21.05708935 243.1529788 -23.81209127 241.77591534 -26.41347611 238.19907939 C-29.7240432 231.7035074 -29.6650532 223.77543602 -29.61550903 216.64401245 C-29.61721788 215.72483603 -29.61892673 214.8056596 -29.62068737 213.85862935 C-29.62395669 210.80785215 -29.61302105 207.75729958 -29.60205078 204.70654297 C-29.60148611 202.50805161 -29.60180431 200.30955987 -29.60293579 198.11106873 C-29.60350813 192.16347017 -29.59177294 186.21595276 -29.57778788 180.26837301 C-29.5652608 174.04505929 -29.56410846 167.82174358 -29.56173706 161.59841919 C-29.55588076 150.49174068 -29.54144842 139.38509564 -29.52245162 128.27843238 C-29.50530296 118.19864426 -29.49282384 108.1188621 -29.48486328 98.0390625 C-29.48433783 97.37558972 -29.48381239 96.71211694 -29.48327102 96.02853893 C-29.48066078 92.69979743 -29.47813792 89.37105588 -29.47564721 86.04231429 C-29.45475845 58.46568889 -29.41959382 30.88909654 -29.375 3.3125 C-26.32932988 2.81556788 -23.28268926 2.32485023 -20.23583984 1.83520508 C-18.94908607 1.62514202 -18.94908607 1.62514202 -17.63633728 1.41083527 C-11.73080838 0.46594 -5.98949851 -0.14330185 0 0 Z " fill="#002868" transform="translate(344.375,389.6875)"/>
</svg>
